<?xml version="1.0" encoding="utf-8"?>
<!-- Generator: Adobe Illustrator 21.1.0, SVG Export Plug-In . SVG Version: 6.00 Build 0)  -->
<svg version="1.1" id="Layer_1" xmlns="http://www.w3.org/2000/svg" xmlns:xlink="http://www.w3.org/1999/xlink" x="0px" y="0px"
	 viewBox="0 0 593.2 156.5" style="enable-background:new 0 0 593.2 156.5;" xml:space="preserve">
<style type="text/css">
	.st0{fill:#F5D942;}
	.st1{fill:#3E225B;}
</style>
<path class="st0" d="M173.8,4L90.4,148.6L6.9,4H173.8 M180.7,0H0l90.4,156.5L180.7,0L180.7,0z"/>
<path class="st0" d="M113,152.5L196.4,7.9l83.5,144.6H113 M106.1,156.5h180.7L196.4,0L106.1,156.5L106.1,156.5z"/>
<g>
	<path class="st1" d="M301.6,81.6l-11,25.2H287l-11.1-25.2h3.9l9.1,20.7l9.1-20.7H301.6z"/>
	<path class="st1" d="M313.4,105.4c-2-1.1-3.6-2.7-4.8-4.6c-1.2-2-1.7-4.2-1.7-6.6c0-2.4,0.6-4.6,1.7-6.6c1.2-2,2.8-3.5,4.8-4.6
		c2-1.1,4.3-1.7,6.9-1.7c2.5,0,4.8,0.6,6.8,1.7c2,1.1,3.6,2.7,4.8,4.6c1.2,2,1.7,4.2,1.7,6.6s-0.6,4.6-1.7,6.6
		c-1.2,2-2.7,3.5-4.8,4.6c-2,1.1-4.3,1.7-6.8,1.7C317.7,107.1,315.4,106.5,313.4,105.4z M325.2,102.6c1.5-0.8,2.6-2,3.5-3.5
		c0.9-1.5,1.3-3.1,1.3-4.9c0-1.8-0.4-3.5-1.3-4.9c-0.9-1.5-2-2.6-3.5-3.5c-1.5-0.8-3.1-1.3-5-1.3s-3.5,0.4-5,1.3
		c-1.5,0.8-2.7,2-3.5,3.5c-0.9,1.5-1.3,3.1-1.3,4.9c0,1.8,0.4,3.5,1.3,4.9c0.9,1.5,2,2.6,3.5,3.5s3.2,1.3,5,1.3
		S323.8,103.5,325.2,102.6z"/>
	<path class="st1" d="M348.1,84.7h-8.6v-3.1h20.8v3.1h-8.6v22.1h-3.6V84.7z"/>
	<path class="st1" d="M368.5,81.6h10.6c2.7,0,5,0.5,7.1,1.6c2.1,1.1,3.7,2.5,4.8,4.4c1.1,1.9,1.7,4.1,1.7,6.6c0,2.5-0.6,4.7-1.7,6.6
		c-1.1,1.9-2.7,3.4-4.8,4.4c-2.1,1.1-4.4,1.6-7.1,1.6h-10.6V81.6z M378.9,103.7c2,0,3.8-0.4,5.4-1.2c1.5-0.8,2.7-1.9,3.6-3.3
		s1.3-3.1,1.3-4.9c0-1.9-0.4-3.5-1.3-4.9s-2-2.5-3.6-3.3c-1.5-0.8-3.3-1.2-5.4-1.2h-6.8v18.9H378.9z"/>
	<path class="st1" d="M402.5,81.6h3.6v25.2h-3.6V81.6z"/>
	<path class="st1" d="M434,100.5h-13.4l-2.8,6.3h-3.7l11.4-25.2h3.6l11.4,25.2h-3.8L434,100.5z M432.8,97.6l-5.4-12.3l-5.4,12.3
		H432.8z"/>
	<path class="st1" d="M450.5,106.2c-1.8-0.6-3.1-1.3-4.2-2.3l1.3-2.8c1,0.9,2.2,1.6,3.7,2.1c1.5,0.5,3,0.8,4.6,0.8
		c2.1,0,3.6-0.4,4.7-1.1s1.5-1.6,1.5-2.8c0-0.9-0.3-1.6-0.8-2.1c-0.6-0.5-1.3-1-2.1-1.2c-0.8-0.3-2-0.6-3.5-1
		c-1.9-0.5-3.4-0.9-4.6-1.4c-1.2-0.5-2.2-1.2-3-2.1c-0.8-0.9-1.2-2.2-1.2-3.8c0-1.3,0.4-2.6,1.1-3.6c0.7-1.1,1.8-1.9,3.2-2.6
		c1.4-0.6,3.2-1,5.4-1c1.5,0,2.9,0.2,4.4,0.6c1.4,0.4,2.7,0.9,3.7,1.7l-1.2,2.9c-1.1-0.7-2.2-1.2-3.4-1.5c-1.2-0.3-2.4-0.5-3.5-0.5
		c-2,0-3.6,0.4-4.6,1.1c-1,0.7-1.5,1.7-1.5,2.9c0,0.9,0.3,1.6,0.9,2.1c0.6,0.5,1.3,1,2.1,1.3c0.9,0.3,2,0.6,3.5,1
		c1.9,0.5,3.4,0.9,4.6,1.4c1.2,0.5,2.1,1.2,3,2.1c0.8,0.9,1.2,2.2,1.2,3.8c0,1.3-0.4,2.5-1.1,3.6c-0.7,1.1-1.8,2-3.3,2.6
		c-1.5,0.6-3.3,1-5.4,1C454.1,107.1,452.3,106.8,450.5,106.2z"/>
	<path class="st1" d="M492.8,84c1.9,1.6,2.8,3.7,2.8,6.4c0,2.7-0.9,4.9-2.8,6.4c-1.9,1.6-4.4,2.3-7.7,2.3h-6.2v7.6h-3.6V81.6h9.8
		C488.4,81.6,491,82.4,492.8,84z M490.2,94.6c1.2-1,1.8-2.4,1.8-4.2c0-1.8-0.6-3.2-1.8-4.2c-1.2-1-2.9-1.5-5.2-1.5h-6.1V96h6.1
		C487.3,96,489,95.6,490.2,94.6z"/>
	<path class="st1" d="M510.1,105.4c-2-1.1-3.6-2.7-4.8-4.6c-1.2-2-1.7-4.2-1.7-6.6c0-2.4,0.6-4.6,1.7-6.6c1.2-2,2.8-3.5,4.8-4.6
		c2-1.1,4.3-1.7,6.9-1.7c2.5,0,4.8,0.6,6.8,1.7c2,1.1,3.6,2.7,4.8,4.6c1.2,2,1.7,4.2,1.7,6.6s-0.6,4.6-1.7,6.6
		c-1.2,2-2.7,3.5-4.8,4.6c-2,1.1-4.3,1.7-6.8,1.7C514.4,107.1,512.1,106.5,510.1,105.4z M522,102.6c1.5-0.8,2.6-2,3.5-3.5
		c0.9-1.5,1.3-3.1,1.3-4.9c0-1.8-0.4-3.5-1.3-4.9c-0.9-1.5-2-2.6-3.5-3.5c-1.5-0.8-3.1-1.3-5-1.3s-3.5,0.4-5,1.3
		c-1.5,0.8-2.7,2-3.5,3.5c-0.9,1.5-1.3,3.1-1.3,4.9c0,1.8,0.4,3.5,1.3,4.9c0.9,1.5,2,2.6,3.5,3.5s3.2,1.3,5,1.3
		S520.5,103.5,522,102.6z"/>
	<path class="st1" d="M557,106.8l-5.4-7.7c-0.7,0-1.2,0.1-1.6,0.1h-6.2v7.7h-3.6V81.6h9.8c3.3,0,5.8,0.8,7.7,2.3
		c1.9,1.6,2.8,3.7,2.8,6.4c0,1.9-0.5,3.6-1.4,5c-1,1.4-2.3,2.4-4.1,3l6,8.5H557z M555.1,94.6c1.2-1,1.8-2.4,1.8-4.2
		c0-1.8-0.6-3.2-1.8-4.2c-1.2-1-2.9-1.5-5.2-1.5h-6.1v11.3h6.1C552.1,96.1,553.9,95.6,555.1,94.6z"/>
	<path class="st1" d="M586.7,100.5h-13.4l-2.8,6.3h-3.7l11.4-25.2h3.6l11.4,25.2h-3.8L586.7,100.5z M585.4,97.6L580,85.3l-5.4,12.3
		H585.4z"/>
</g>
</svg>
