<?xml version="1.0" encoding="utf-8"?>
<!-- Generator: Adobe Illustrator 21.1.0, SVG Export Plug-In . SVG Version: 6.00 Build 0)  -->
<svg version="1.1" id="Layer_1" xmlns="http://www.w3.org/2000/svg" xmlns:xlink="http://www.w3.org/1999/xlink" x="0px" y="0px"
	 viewBox="0 0 488 70" style="enable-background:new 0 0 488 70;" xml:space="preserve">
<style type="text/css">
	.st0{fill:#F5D942;}
	.st1{fill:#3E225B;}
	.st2{fill:#0000FF;}
	.st3{fill:#F2F2FF;}
	.st4{fill:#D9D9FF;}
	.st5{fill:#B3B3FF;}
	.st6{fill:#E6E6FF;}
</style>
<path id="by_1_" d="M283.8,38.6v-4.7h-1.4v13.9l0.5,0.1c1.3,0.1,2.1,0.2,2.7,0.2c1.7,0,2.9-0.4,3.6-1.1c0.8-1.2,1.1-2.5,1-3.9
	c0.1-1.3-0.2-2.7-0.8-3.9c-0.7-0.8-1.7-1.2-2.7-1.1C285.6,38,284.6,38.2,283.8,38.6L283.8,38.6L283.8,38.6z M283.8,46.6v-6.8
	l0.4-0.1c0.7-0.3,1.5-0.4,2.3-0.4c0.7-0.1,1.3,0.2,1.7,0.8c0.4,0.9,0.6,1.9,0.5,2.9c0.1,1-0.1,2-0.6,2.9c-0.6,0.7-1.6,1-2.5,0.9
	C285.2,46.7,284.6,46.7,283.8,46.6L283.8,46.6L283.8,46.6z M294.2,47.8h1.4l-1.3,4.3h1.5l4-14h-1.5l-2.4,8.4h-0.6l-2.4-8.4h-1.5
	L294.2,47.8z"/>
<g>
	<path class="st0" d="M77.7,1.8L40.4,66.5L3.1,1.8H77.7 M80.8,0H0l40.4,70L80.8,0L80.8,0z"/>
	<path class="st0" d="M50.5,68.2L87.8,3.5l37.3,64.7H50.5 M47.5,70h80.8L87.8,0L47.5,70L47.5,70z"/>
	<g>
		<path class="st1" d="M134.9,36.5L130,47.8h-1.6l-5-11.3h1.7l4.1,9.3l4.1-9.3C133.3,36.5,134.9,36.5,134.9,36.5z"/>
		<path class="st1" d="M140.2,47.1c-0.9-0.5-1.6-1.2-2.1-2.1c-0.5-0.9-0.8-1.9-0.8-3c0-1.1,0.3-2.1,0.8-3c0.5-0.9,1.3-1.6,2.1-2.1
			c0.9-0.5,1.9-0.8,3.1-0.8c1.1,0,2.1,0.3,3,0.8c0.9,0.5,1.6,1.2,2.1,2.1c0.5,0.9,0.8,1.9,0.8,3c0,1.1-0.3,2.1-0.8,3
			c-0.5,0.9-1.2,1.6-2.1,2.1c-0.9,0.5-1.9,0.8-3,0.8C142.1,47.9,141.1,47.6,140.2,47.1z M145.5,45.9c0.7-0.4,1.2-0.9,1.6-1.6
			s0.6-1.4,0.6-2.2c0-0.8-0.2-1.6-0.6-2.2c-0.4-0.7-0.9-1.2-1.6-1.6c-0.7-0.4-1.4-0.6-2.2-0.6s-1.6,0.2-2.2,0.6
			c-0.7,0.4-1.2,0.9-1.6,1.6c-0.4,0.7-0.6,1.4-0.6,2.2c0,0.8,0.2,1.6,0.6,2.2c0.4,0.7,0.9,1.2,1.6,1.6c0.7,0.4,1.4,0.6,2.2,0.6
			C144,46.5,144.8,46.3,145.5,45.9z"/>
		<path class="st1" d="M155.7,37.9h-3.8v-1.4h9.3v1.4h-3.8v9.9h-1.6V37.9L155.7,37.9z"/>
		<path class="st1" d="M164.8,36.5h4.7c1.2,0,2.2,0.2,3.2,0.7s1.7,1.1,2.1,2c0.5,0.8,0.8,1.8,0.8,3c0,1.1-0.3,2.1-0.8,3
			c-0.5,0.8-1.2,1.5-2.1,2c-0.9,0.5-2,0.7-3.2,0.7h-4.7V36.5z M169.5,46.4c0.9,0,1.7-0.2,2.4-0.5c0.7-0.4,1.2-0.8,1.6-1.5
			c0.4-0.6,0.6-1.4,0.6-2.2c0-0.8-0.2-1.6-0.6-2.2c-0.4-0.6-0.9-1.1-1.6-1.5c-0.7-0.4-1.5-0.5-2.4-0.5h-3v8.5L169.5,46.4L169.5,46.4
			z"/>
		<path class="st1" d="M180,36.5h1.6v11.3H180V36.5z"/>
		<path class="st1" d="M194.1,45h-6l-1.3,2.8h-1.7l5.1-11.3h1.6l5.1,11.3h-1.7L194.1,45z M193.6,43.7l-2.4-5.5l-2.4,5.5H193.6z"/>
		<path class="st1" d="M201.5,47.5c-0.8-0.3-1.4-0.6-1.9-1l0.6-1.3c0.4,0.4,1,0.7,1.7,0.9c0.7,0.2,1.3,0.4,2.1,0.4
			c0.9,0,1.6-0.2,2.1-0.5c0.5-0.3,0.7-0.7,0.7-1.3c0-0.4-0.1-0.7-0.4-0.9c-0.3-0.2-0.6-0.4-0.9-0.5c-0.4-0.1-0.9-0.3-1.6-0.4
			c-0.8-0.2-1.5-0.4-2.1-0.6c-0.5-0.2-1-0.5-1.3-0.9s-0.5-1-0.5-1.7c0-0.6,0.2-1.2,0.5-1.6c0.3-0.5,0.8-0.8,1.4-1.2
			c0.6-0.3,1.4-0.4,2.4-0.4c0.7,0,1.3,0.1,2,0.3c0.6,0.2,1.2,0.4,1.7,0.8l-0.5,1.3c-0.5-0.3-1-0.5-1.5-0.7c-0.5-0.1-1.1-0.2-1.6-0.2
			c-0.9,0-1.6,0.2-2.1,0.5c-0.4,0.3-0.7,0.8-0.7,1.3c0,0.4,0.1,0.7,0.4,0.9c0.3,0.2,0.6,0.4,0.9,0.6c0.4,0.1,0.9,0.3,1.6,0.4
			c0.8,0.2,1.5,0.4,2.1,0.6c0.5,0.2,0.9,0.5,1.3,0.9c0.4,0.4,0.5,1,0.5,1.7c0,0.6-0.2,1.1-0.5,1.6c-0.3,0.5-0.8,0.9-1.5,1.2
			c-0.7,0.3-1.5,0.4-2.4,0.4C203.1,47.9,202.3,47.8,201.5,47.5z"/>
		<path class="st1" d="M220.4,37.6c0.8,0.7,1.3,1.7,1.3,2.9c0,1.2-0.4,2.2-1.3,2.9c-0.8,0.7-2,1-3.4,1h-2.8v3.4h-1.6V36.5h4.4
			C218.5,36.5,219.6,36.9,220.4,37.6z M219.3,42.3c0.5-0.4,0.8-1.1,0.8-1.9c0-0.8-0.3-1.4-0.8-1.9c-0.5-0.4-1.3-0.7-2.3-0.7h-2.7
			v5.1h2.7C218,42.9,218.7,42.8,219.3,42.3z"/>
		<path class="st1" d="M228.2,47.1c-0.9-0.5-1.6-1.2-2.1-2.1c-0.5-0.9-0.8-1.9-0.8-3c0-1.1,0.3-2.1,0.8-3c0.5-0.9,1.3-1.6,2.1-2.1
			s1.9-0.8,3.1-0.8c1.1,0,2.1,0.3,3,0.8c0.9,0.5,1.6,1.2,2.1,2.1c0.5,0.9,0.8,1.9,0.8,3c0,1.1-0.3,2.1-0.8,3
			c-0.5,0.9-1.2,1.6-2.1,2.1c-0.9,0.5-1.9,0.8-3,0.8C230.1,47.9,229.1,47.6,228.2,47.1z M233.5,45.9c0.7-0.4,1.2-0.9,1.6-1.6
			c0.4-0.7,0.6-1.4,0.6-2.2c0-0.8-0.2-1.6-0.6-2.2c-0.4-0.7-0.9-1.2-1.6-1.6c-0.7-0.4-1.4-0.6-2.2-0.6s-1.6,0.2-2.2,0.6
			c-0.7,0.4-1.2,0.9-1.6,1.6c-0.4,0.7-0.6,1.4-0.6,2.2c0,0.8,0.2,1.6,0.6,2.2c0.4,0.7,0.9,1.2,1.6,1.6s1.4,0.6,2.2,0.6
			C232.1,46.5,232.8,46.3,233.5,45.9z"/>
		<path class="st1" d="M249.1,47.8l-2.4-3.4c-0.3,0-0.5,0-0.7,0h-2.8v3.4h-1.6V36.5h4.4c1.5,0,2.6,0.4,3.4,1
			c0.8,0.7,1.3,1.7,1.3,2.9c0,0.8-0.2,1.6-0.6,2.2c-0.4,0.6-1,1.1-1.8,1.3l2.7,3.8H249.1z M248.3,42.3c0.5-0.4,0.8-1.1,0.8-1.9
			c0-0.8-0.3-1.4-0.8-1.9c-0.5-0.4-1.3-0.7-2.3-0.7h-2.7v5.1h2.7C246.9,43,247.8,42.8,248.3,42.3z"/>
		<path class="st1" d="M262.4,45h-6l-1.3,2.8h-1.7l5.1-11.3h1.6l5.1,11.3h-1.7L262.4,45z M261.8,43.7l-2.4-5.5l-2.4,5.5
			C257,43.7,261.8,43.7,261.8,43.7z"/>
	</g>
</g>
<g>
	<path class="st2" d="M337.8,17.1l-7.4,1.1L317,42l13.4,23.8l7.4,1.1L323.5,42L337.8,17.1z M356.7,17.1l7.4,1.1L377.5,42L364,65.8
		l-7.4,1.1L371,42L356.7,17.1z"/>
	<path class="st3" d="M337.8,17.1l9.4-1.1v26h-23.8L337.8,17.1z"/>
	<path class="st4" d="M337.8,66.9l9.4,1.1V42h-23.8L337.8,66.9z"/>
	<path class="st5" d="M356.7,66.9l-9.4,1.1V42H371L356.7,66.9z"/>
	<path class="st6" d="M356.7,17.1l-9.4-1.1v26H371L356.7,17.1z"/>
	<path d="M402.4,37.8c-1.6,0.4-3.3,0.6-4.9,0.6c-1.2,0-2.4-0.1-3.5-0.5c-0.9-0.3-1.6-1-2.1-1.7c-0.5-0.9-0.9-1.8-1.1-2.8
		c-0.2-1.3-0.3-2.7-0.3-4.1c0-3.4,0.5-5.8,1.5-7.1c1-1.3,2.7-2,5.3-2c1.8,0,3.5,0.3,5.2,0.7l-0.1,2.9c-1.4-0.2-2.8-0.4-4.3-0.4
		c-1.2,0-2,0.2-2.4,0.5c-0.5,0.3-0.9,0.9-1.1,1.7c-0.2,0.9-0.4,2.3-0.4,4.4s0.3,3.5,0.7,4.3c0.5,0.8,1.5,1.2,2.9,1.2
		c1.5,0,3.1-0.1,4.6-0.3L402.4,37.8z M405.5,26.6c0.9-1.2,2.5-1.8,4.6-1.8c2.1,0,3.7,0.6,4.6,1.8s1.4,2.9,1.4,5c0,4.6-2,6.8-6,6.8
		c-4,0-6-2.3-6-6.8C404.1,29.4,404.6,27.8,405.5,26.6z M408.2,34.5c0.3,0.6,1,0.9,1.9,0.9s1.6-0.3,1.9-0.9c0.4-0.9,0.6-1.9,0.6-2.9
		c0.1-1-0.1-2-0.6-2.9c-0.3-0.6-1-0.9-1.9-0.9c-0.8-0.1-1.5,0.3-1.9,0.9c-0.4,0.6-0.6,1.6-0.6,2.9C407.6,32.9,407.8,33.9,408.2,34.5
		L408.2,34.5z M429.7,19.9v18.2h-3.5v-0.6c-1,0.5-2.1,0.8-3.2,0.9c-1.9,0-3.2-0.5-3.9-1.6c-0.7-1.1-1.1-2.8-1.1-5.2s0.4-4.1,1.3-5.2
		s2.2-1.6,4.1-1.6c0.8,0,1.5,0.1,2.3,0.3l0.5,0.1v-5.3H429.7z M425.8,35l0.4-0.1v-6.8c-0.8-0.2-1.7-0.2-2.6-0.3
		c-1.4,0-2.1,1.2-2.1,3.8c0,1.3,0.1,2.3,0.5,2.9c0.3,0.6,0.9,0.9,1.5,0.9C424.3,35.3,425.1,35.2,425.8,35z M436.4,34.8
		c0.5,0.4,1.1,0.6,1.7,0.6c1.6,0,3-0.1,4.3-0.2l0.7-0.1v2.6c-1.8,0.5-3.6,0.7-5.4,0.8c-2,0-3.4-0.6-4.3-1.6c-0.9-1-1.3-2.7-1.3-5.1
		c0-4.6,1.9-7,5.7-7c3.8,0,5.7,2,5.7,5.9l-0.3,2.4h-7.6C435.7,33.7,435.9,34.4,436.4,34.8z M440.2,30.4c0-1-0.2-1.7-0.5-2.2
		c-0.3-0.4-0.9-0.6-1.7-0.6c-0.8,0-1.4,0.2-1.7,0.6c-0.3,0.4-0.5,1.2-0.6,2.1H440.2z M456,28.1v10h-3.5v-10h-1.4v-3h1.4v-0.6
		c0-1.9,0.3-3.2,0.9-3.9c0.6-0.7,1.5-1.1,3-1.1c0.8,0,1.6,0.1,2.4,0.3l0.6,0.1v2.9l-1.9-0.1c-0.4,0-0.8,0.1-1.1,0.4
		c-0.2,0.5-0.3,1-0.3,1.5v0.5h3.2v3L456,28.1z M461.8,26.6c0.9-1.2,2.4-1.8,4.6-1.8s3.7,0.6,4.6,1.8c0.9,1.2,1.4,2.9,1.4,5
		c0,4.6-2,6.8-6,6.8c-4,0-6-2.3-6-6.8C460.4,29.4,460.8,27.8,461.8,26.6L461.8,26.6z M464.5,34.5c0.3,0.6,1,0.9,1.9,0.9
		c0.9,0,1.6-0.3,1.9-0.9c0.3-0.6,0.6-1.6,0.6-2.9c0-1.3-0.2-2.3-0.6-2.9s-1-0.9-1.9-0.9c-0.9,0-1.5,0.3-1.9,0.9
		c-0.3,0.6-0.6,1.6-0.6,2.9C463.9,32.9,464.1,33.9,464.5,34.5L464.5,34.5z M474.9,38.1v-13h3.5v1.4c1.3-0.8,2.7-1.4,4.2-1.7v3.5
		c-1.2,0.2-2.4,0.6-3.6,0.9l-0.5,0.2v8.7H474.9z M394.8,58.2v5.9h-3.6V46.4h6.9c4.2,0,6.2,2,6.2,5.8c0,2.3-0.9,4-2.6,5.1l2.5,6.8
		h-3.9l-2-5.9H394.8z M400,54.3c0.4-0.6,0.6-1.3,0.6-2.1c0-0.7-0.2-1.4-0.6-2c-0.5-0.5-1.2-0.8-1.9-0.8h-3.3v5.6h3.3
		C398.8,55.2,399.5,54.9,400,54.3z M407.5,52.6c0.9-1.2,2.5-1.7,4.6-1.7c2.1,0,3.7,0.6,4.6,1.7c0.9,1.2,1.4,2.9,1.4,5
		c0,4.6-2,6.8-6,6.8c-4,0-6-2.3-6-6.8C406.1,55.4,406.6,53.8,407.5,52.6z M410.2,60.5c0.4,0.6,1.2,1,1.9,0.9c0.9,0,1.6-0.3,1.9-0.9
		c0.4-0.9,0.6-1.9,0.6-2.9c0.1-1-0.1-2-0.6-2.9c-0.3-0.6-1-0.9-1.9-0.9c-0.8-0.1-1.5,0.3-1.9,0.9c-0.3,0.6-0.5,1.6-0.5,2.9
		S409.8,59.9,410.2,60.5L410.2,60.5z M424.1,64.1h-3.5v-13h3.5v0.7c0.9-0.6,2-0.9,3.1-1c1.4,0,2.5,0.4,3.2,1.2
		c1.4-0.7,2.9-1.1,4.4-1.2c1.7,0,2.9,0.5,3.6,1.5c0.7,1,1,2.6,1,4.8v7h-3.5v-7c0.1-0.8-0.1-1.7-0.3-2.5c-0.3-0.5-0.9-0.8-1.5-0.8
		c-0.7,0-1.4,0.1-2,0.3l-0.4,0.1c0.1,1.3,0.1,2.3,0.1,3v6.7h-3.5v-6.7c0-0.9-0.1-1.8-0.3-2.7c-0.2-0.5-0.7-0.8-1.5-0.8
		c-0.7,0-1.4,0.1-2,0.3l-0.3,0.1C424.1,54.4,424.1,64.1,424.1,64.1z M452.4,55.2v5.4c0,0.3,0.1,0.6,0.2,0.9c0.1,0.2,0.4,0.3,0.6,0.3
		l-0.1,2.6c-0.7,0-1.4,0-2.1-0.2c-0.6-0.2-1.1-0.4-1.6-0.7c-1.2,0.6-2.5,0.9-3.8,0.9c-2.7,0-4.1-1.4-4.1-4.3c0-1.4,0.4-2.4,1.2-2.9
		c0.7-0.6,1.9-0.9,3.4-1l2.8-0.2v-0.8c0-0.4-0.1-0.8-0.3-1.1c-0.4-0.2-0.8-0.3-1.2-0.3l-4.9,0.2l-0.1-2.4c1.7-0.5,3.5-0.7,5.3-0.8
		c1.7,0,2.9,0.4,3.6,1.1S452.4,53.6,452.4,55.2L452.4,55.2z M446.5,58.6c-1,0.1-1.5,0.6-1.5,1.5s0.4,1.5,1.3,1.5
		c0.7,0,1.4-0.1,2.1-0.3l0.4-0.1v-2.8L446.5,58.6z M459.2,64.1h-3.5v-13h3.5v0.7c1-0.6,2.1-1,3.2-1c1.8,0,3,0.5,3.6,1.5
		c0.7,1,1,2.6,1,4.7v7.1h-3.5v-7c0-0.8-0.1-1.7-0.4-2.5c-0.3-0.5-0.8-0.8-1.6-0.8c-0.7,0-1.4,0.1-2,0.3l-0.3,0.1V64.1z M470.1,49.4
		v-3.5h3.5v3.5L470.1,49.4z M470.1,64.1v-13h3.5v13H470.1z M486.8,55.2v5.4c0,0.3,0.1,0.6,0.2,0.9c0.1,0.2,0.4,0.3,0.6,0.3l-0.1,2.6
		c-0.7,0-1.4,0-2.1-0.2c-0.6-0.2-1.1-0.4-1.6-0.7c-1.2,0.6-2.5,0.9-3.8,0.9c-2.7,0-4.1-1.4-4.1-4.3c0-1.4,0.4-2.4,1.1-2.9
		s1.9-0.9,3.5-1l2.8-0.2v-0.8c0-0.4-0.1-0.8-0.3-1.1c-0.4-0.2-0.8-0.3-1.2-0.3l-4.9,0.2l-0.1-2.4c1.7-0.5,3.5-0.7,5.3-0.8
		c1.7,0,2.9,0.4,3.6,1.1S486.8,53.6,486.8,55.2L486.8,55.2z M480.9,58.6c-1,0.1-1.5,0.6-1.5,1.5s0.4,1.5,1.2,1.5
		c0.7,0,1.5-0.1,2.2-0.3l0.4-0.1v-2.8L480.9,58.6z"/>
</g>
</svg>
